PathFileType	4	(X/Y/Z)	C:\Users\italobelli\Desktop\GitHub\PTbot_officialCBL\Personal_Results\FLX02_noisy2.trc
DataRate	CameraRate	NumFrames	NumMarkers	Units	OrigDataRate	OrigDataStartFrame	OrigNumFrames
106.125000	106.125000	29	9	m	106.125000	638	850
Frame#	Time		gu		centelbow		EpL		centpxt8		centijc7		ij		ts		aa		ai
			X1	Y1	Z1	X2	Y2	Z2	X3	Y3	Z3	X4	Y4	Z4	X5	Y5	Z5	X6	Y6	Z6	X7	Y7	Z7	X8	Y8	Z8	X9	Y9	Z9

638	6.0024	-0.088744	0.013741	0.15351	0.052521	-0.15593	0.25917	0.063943	-0.1307	0.27564	-0.046816	-0.15316	-0.008669	-0.046816	0.031938	-0.008669	0	0	0	-0.14758	0.010216	0.041256	-0.1218	0.038871	0.15413	-0.14598	-0.098463	0.073994
639	6.0118	-0.088672	0.013355	0.15378	0.050947	-0.15805	0.25872	0.062603	-0.13302	0.27525	-0.046816	-0.15316	-0.008669	-0.046816	0.031938	-0.008669	0	0	0	-0.14747	0.010375	0.0413	-0.12174	0.038554	0.15434	-0.14601	-0.098428	0.073629
640	6.0212	-0.088598	0.01297	0.15406	0.049317	-0.16017	0.25826	0.06121	-0.13535	0.27485	-0.046816	-0.15316	-0.008669	-0.046816	0.031938	-0.008669	0	0	0	-0.14736	0.010536	0.041351	-0.12168	0.038235	0.15455	-0.14604	-0.098388	0.073266
641	6.0306	-0.08852	0.012585	0.15433	0.047633	-0.1623	0.25778	0.059767	-0.13769	0.27443	-0.046816	-0.15316	-0.008669	-0.046816	0.031938	-0.008669	0	0	0	-0.14725	0.010699	0.041408	-0.12161	0.037913	0.15476	-0.14607	-0.098345	0.072905
642	6.04	-0.08844	0.012201	0.1546	0.045897	-0.16444	0.25728	0.058275	-0.14004	0.27399	-0.046816	-0.15316	-0.008669	-0.046816	0.031938	-0.008669	0	0	0	-0.14714	0.010863	0.04147	-0.12154	0.03759	0.15497	-0.14609	-0.098298	0.072545
643	6.0495	-0.088357	0.011817	0.15487	0.04411	-0.16657	0.25676	0.056737	-0.14239	0.27353	-0.046816	-0.15316	-0.008669	-0.046816	0.031938	-0.008669	0	0	0	-0.14703	0.011029	0.041537	-0.12147	0.037265	0.15518	-0.14612	-0.098247	0.072187
644	6.0589	-0.088272	0.011435	0.15514	0.042276	-0.16871	0.25624	0.055153	-0.14474	0.27306	-0.046816	-0.15316	-0.008669	-0.046816	0.031938	-0.008669	0	0	0	-0.14692	0.011196	0.04161	-0.12139	0.036938	0.15539	-0.14614	-0.098192	0.071831
645	6.0683	-0.088184	0.011053	0.15541	0.040395	-0.17085	0.25569	0.053526	-0.1471	0.27257	-0.046816	-0.15316	-0.008669	-0.046816	0.031938	-0.008669	0	0	0	-0.14681	0.011365	0.041688	-0.12131	0.036611	0.1556	-0.14616	-0.098133	0.071477
646	6.0777	-0.088094	0.010672	0.15568	0.038471	-0.17298	0.25513	0.051857	-0.14946	0.27207	-0.046816	-0.15316	-0.008669	-0.046816	0.031938	-0.008669	0	0	0	-0.14669	0.011535	0.041771	-0.12123	0.036283	0.15581	-0.14619	-0.098072	0.071126
647	6.0872	-0.088003	0.010293	0.15595	0.036504	-0.17511	0.25456	0.050149	-0.15181	0.27156	-0.046816	-0.15316	-0.008669	-0.046816	0.031938	-0.008669	0	0	0	-0.14658	0.011707	0.041858	-0.12114	0.035955	0.15602	-0.14621	-0.098006	0.070777
648	6.0966	-0.087909	0.0099151	0.15622	0.034498	-0.17724	0.25398	0.048403	-0.15416	0.27102	-0.046816	-0.15316	-0.008669	-0.046816	0.031938	-0.008669	0	0	0	-0.14646	0.011879	0.041949	-0.12106	0.035627	0.15624	-0.14622	-0.097938	0.07043
649	6.106	-0.087813	0.0095389	0.15648	0.032455	-0.17936	0.25338	0.046621	-0.15651	0.27048	-0.046816	-0.15316	-0.008669	-0.046816	0.031938	-0.008669	0	0	0	-0.14635	0.012052	0.042044	-0.12096	0.035299	0.15645	-0.14624	-0.097867	0.070086
650	6.1154	-0.087716	0.0091644	0.15675	0.030376	-0.18147	0.25278	0.044804	-0.15885	0.26992	-0.046816	-0.15316	-0.008669	-0.046816	0.031938	-0.008669	0	0	0	-0.14623	0.012227	0.042143	-0.12087	0.034972	0.15666	-0.14626	-0.097792	0.069745
651	6.1249	-0.087617	0.0087917	0.15701	0.028263	-0.18357	0.25216	0.042955	-0.16118	0.26936	-0.046816	-0.15316	-0.008669	-0.046816	0.031938	-0.008669	0	0	0	-0.14611	0.012402	0.042245	-0.12077	0.034647	0.15687	-0.14627	-0.097715	0.069407
652	6.1343	-0.087516	0.0084212	0.15727	0.026119	-0.18565	0.25153	0.041075	-0.1635	0.26878	-0.046816	-0.15316	-0.008669	-0.046816	0.031938	-0.008669	0	0	0	-0.146	0.012577	0.042351	-0.12067	0.034322	0.15708	-0.14629	-0.097635	0.069072
653	6.1437	-0.087414	0.0080528	0.15753	0.023946	-0.18773	0.25089	0.039167	-0.16582	0.26819	-0.046816	-0.15316	-0.008669	-0.046816	0.031938	-0.008669	0	0	0	-0.14588	0.012754	0.04246	-0.12057	0.033999	0.15728	-0.1463	-0.097553	0.06874
654	6.1531	-0.087311	0.0076867	0.15778	0.021745	-0.18978	0.25024	0.037231	-0.16811	0.26759	-0.046816	-0.15316	-0.008669	-0.046816	0.031938	-0.008669	0	0	0	-0.14576	0.012931	0.042571	-0.12047	0.033679	0.15749	-0.14631	-0.097468	0.068411
655	6.1625	-0.087206	0.0073231	0.15804	0.019519	-0.19182	0.24958	0.03527	-0.1704	0.26698	-0.046816	-0.15316	-0.008669	-0.046816	0.031938	-0.008669	0	0	0	-0.14564	0.013108	0.042685	-0.12037	0.03336	0.1577	-0.14632	-0.09738	0.068086
656	6.172	-0.087101	0.0069622	0.15829	0.017271	-0.19385	0.24892	0.033285	-0.17266	0.26636	-0.046816	-0.15316	-0.008669	-0.046816	0.031938	-0.008669	0	0	0	-0.14552	0.013286	0.042801	-0.12026	0.033044	0.1579	-0.14633	-0.097291	0.067764
657	6.1814	-0.086994	0.006604	0.15854	0.015001	-0.19585	0.24824	0.031279	-0.17491	0.26574	-0.046816	-0.15316	-0.008669	-0.046816	0.031938	-0.008669	0	0	0	-0.14541	0.013463	0.042919	-0.12015	0.032732	0.1581	-0.14634	-0.097199	0.067446
658	6.1908	-0.086886	0.0062488	0.15878	0.012712	-0.19783	0.24756	0.029253	-0.17714	0.2651	-0.046816	-0.15316	-0.008669	-0.046816	0.031938	-0.008669	0	0	0	-0.14529	0.013641	0.043039	-0.12005	0.032422	0.1583	-0.14635	-0.097106	0.067132
659	6.2002	-0.086778	0.0058966	0.15903	0.010407	-0.19979	0.24688	0.027209	-0.17934	0.26446	-0.046816	-0.15316	-0.008669	-0.046816	0.031938	-0.008669	0	0	0	-0.14517	0.013819	0.043161	-0.11994	0.032117	0.1585	-0.14635	-0.09701	0.066821
660	6.2097	-0.086669	0.0055477	0.15927	0.0080868	-0.20172	0.24618	0.025148	-0.18153	0.26382	-0.046816	-0.15316	-0.008669	-0.046816	0.031938	-0.008669	0	0	0	-0.14505	0.013997	0.043284	-0.11983	0.031815	0.1587	-0.14636	-0.096913	0.066515
661	6.2191	-0.08656	0.0052022	0.1595	0.005754	-0.20362	0.24549	0.023073	-0.18368	0.26317	-0.046816	-0.15316	-0.008669	-0.046816	0.031938	-0.008669	0	0	0	-0.14493	0.014174	0.043408	-0.11972	0.031518	0.1589	-0.14636	-0.096814	0.066213
662	6.2285	-0.08645	0.0048601	0.15974	0.0034107	-0.2055	0.24478	0.020985	-0.18581	0.26251	-0.046816	-0.15316	-0.008669	-0.046816	0.031938	-0.008669	0	0	0	-0.14481	0.014352	0.043532	-0.11961	0.031225	0.15909	-0.14636	-0.096714	0.065915
663	6.2379	-0.086339	0.0045218	0.15997	0.001059	-0.20735	0.24408	0.018886	-0.18792	0.26185	-0.046816	-0.15316	-0.008669	-0.046816	0.031938	-0.008669	0	0	0	-0.14469	0.014529	0.043658	-0.1195	0.030937	0.15928	-0.14636	-0.096613	0.065622
664	6.2473	-0.086229	0.0041873	0.16019	-0.0012992	-0.20917	0.24336	0.016778	-0.18999	0.26119	-0.046816	-0.15316	-0.008669	-0.046816	0.031938	-0.008669	0	0	0	-0.14457	0.014705	0.043783	-0.11939	0.030655	0.15946	-0.14636	-0.09651	0.065333
665	6.2568	-0.086118	0.0038567	0.16042	-0.0036617	-0.21095	0.24265	0.014663	-0.19203	0.26052	-0.046816	-0.15316	-0.008669	-0.046816	0.031938	-0.008669	0	0	0	-0.14444	0.014881	0.043909	-0.11928	0.030378	0.15965	-0.14636	-0.096406	0.065049
666	6.2662	-0.086007	0.0035303	0.16064	-0.0060263	-0.2127	0.24193	0.012542	-0.19404	0.25985	-0.046816	-0.15316	-0.008669	-0.046816	0.031938	-0.008669	0	0	0	-0.14432	0.015056	0.044034	-0.11917	0.030107	0.15983	-0.14636	-0.096301	0.06477
